<svg width="200" height="200" viewBox="0 0 200 200" fill="none" xmlns="http://www.w3.org/2000/svg">
  <path d="M100 20C60 20 30 50 30 90C30 130 60 160 100 160C140 160 170 130 170 90C170 50 140 20 100 20Z" stroke="currentColor" stroke-width="1" stroke-opacity="0.1"/>
  <path d="M100 40C70 40 50 60 50 90C50 120 70 140 100 140C130 140 150 120 150 90C150 60 130 40 100 40Z" stroke="currentColor" stroke-width="1" stroke-opacity="0.1"/>
  <path d="M100 60C80 60 70 70 70 90C70 110 80 120 100 120C120 120 130 110 130 90C130 70 120 60 100 60Z" stroke="currentColor" stroke-width="1" stroke-opacity="0.1"/>
  <path d="M100 80C90 80 90 80 90 90C90 100 90 100 100 100C110 100 110 100 110 90C110 80 110 80 100 80Z" stroke="currentColor" stroke-width="1" stroke-opacity="0.1"/>
</svg> 